<?xml version="1.0" encoding="UTF-8" standalone="no"?>
<!-- Created with Inkscape (http://www.inkscape.org/) -->

<svg
   xmlns:dc="http://purl.org/dc/elements/1.1/"
   xmlns:cc="http://creativecommons.org/ns#"
   xmlns:rdf="http://www.w3.org/1999/02/22-rdf-syntax-ns#"
   xmlns:svg="http://www.w3.org/2000/svg"
   xmlns="http://www.w3.org/2000/svg"
   xmlns:sodipodi="http://sodipodi.sourceforge.net/DTD/sodipodi-0.dtd"
   xmlns:inkscape="http://www.inkscape.org/namespaces/inkscape"
   width="3240"
   height="4320"
   id="svg2"
   version="1.1"
   inkscape:version="0.48.3.1 r9886"
   sodipodi:docname="map2.svg">
  <defs
     id="defs4" />
  <sodipodi:namedview
     id="base"
     pagecolor="#ffffff"
     bordercolor="#666666"
     borderopacity="1.0"
     inkscape:pageopacity="0.0"
     inkscape:pageshadow="2"
     inkscape:zoom="1.979899"
     inkscape:cx="705.46897"
     inkscape:cy="3094.8494"
     inkscape:document-units="px"
     inkscape:current-layer="layer1"
     showgrid="true"
     inkscape:window-width="1366"
     inkscape:window-height="738"
     inkscape:window-x="0"
     inkscape:window-y="0"
     inkscape:window-maximized="0"
     objecttolerance="10000"
     guidetolerance="10000">
    <inkscape:grid
       type="xygrid"
       id="grid3001"
       empspacing="5"
       visible="true"
       enabled="true"
       snapvisiblegridlinesonly="true" />
  </sodipodi:namedview>
  <metadata
     id="metadata7">
    <rdf:RDF>
      <cc:Work
         rdf:about="">
        <dc:format>image/svg+xml</dc:format>
        <dc:type
           rdf:resource="http://purl.org/dc/dcmitype/StillImage" />
        <dc:title />
      </cc:Work>
    </rdf:RDF>
  </metadata>
  <g
     inkscape:label="Layer 1"
     inkscape:groupmode="layer"
     id="layer1"
     transform="translate(0,3267.6378)">
    <path
       style="fill:none;stroke:#000000;stroke-width:0.75592893px;stroke-linecap:butt;stroke-linejoin:miter;stroke-opacity:1"
       d="m -200,-3427.6378 560,0 0,280 -240,400 -320,0 z"
       id="path3003"
       inkscape:connector-curvature="0"
       sodipodi:nodetypes="cccccc" />
    <path
       style="fill:none;stroke:#000000;stroke-width:1px;stroke-linecap:butt;stroke-linejoin:miter;stroke-opacity:1"
       d="m 840,-160 -480,0 0,280 480,0 z"
       id="path3005"
       inkscape:connector-curvature="0"
       transform="translate(0,-3267.6378)" />
    <path
       style="fill:none;stroke:#000000;stroke-width:1px;stroke-linecap:butt;stroke-linejoin:miter;stroke-opacity:1"
       d="m 840,-160 440,0 0,800 -160,0 -120,-120 0,-200 -160,-200 z"
       id="path3007"
       inkscape:connector-curvature="0"
       transform="translate(0,-3267.6378)" />
    <path
       style="fill:none;stroke:#000000;stroke-width:1px;stroke-linecap:butt;stroke-linejoin:miter;stroke-opacity:1"
       d="m 120,520 0,640 -320,0 0,-640 z"
       id="path3009"
       inkscape:connector-curvature="0"
       transform="translate(0,-3267.6378)" />
    <path
       style="fill:none;stroke:#000000;stroke-width:1px;stroke-linecap:butt;stroke-linejoin:miter;stroke-opacity:1"
       d="m 1120,920 160,0 0,600 -480,0 0,-240 160,-160 0,-120 160,-80 z"
       id="path3011"
       inkscape:connector-curvature="0"
       transform="translate(0,-3267.6378)" />
    <path
       style="fill:none;stroke:#000000;stroke-width:1px;stroke-linecap:butt;stroke-linejoin:miter;stroke-opacity:1"
       d="m 360,1000 120,0 80,200 0,320 -280,0 0,-360 z"
       id="path3013"
       inkscape:connector-curvature="0"
       transform="translate(0,-3267.6378)" />
    <path
       style="fill:none;stroke:#000000;stroke-width:1px;stroke-linecap:butt;stroke-linejoin:miter;stroke-opacity:1"
       d="m 120,1160 0,440 -320,0 0,-440 z"
       id="path3015"
       inkscape:connector-curvature="0"
       transform="translate(0,-3267.6378)" />
    <path
       style="fill:none;stroke:#000000;stroke-width:1px;stroke-linecap:butt;stroke-linejoin:miter;stroke-opacity:1"
       d="m 560,1360 240,0 0,80 -240,0 z"
       id="path3017"
       inkscape:connector-curvature="0"
       transform="translate(0,-3267.6378)"
       inkscape:label="blink" />
    <path
       style="fill:none;stroke:#000000;stroke-width:1px;stroke-linecap:butt;stroke-linejoin:miter;stroke-opacity:1"
       d="m 120,1760 560,240 0,200 -160,0 -400,-200 z"
       id="path3019"
       inkscape:connector-curvature="0"
       transform="translate(0,-3267.6378)" />
    <path
       style="fill:none;stroke:#000000;stroke-width:1px;stroke-linecap:butt;stroke-linejoin:miter;stroke-opacity:1"
       d="m 680,2000 480,0 0,200 -480,0 z"
       id="path3021"
       inkscape:connector-curvature="0"
       transform="translate(0,-3267.6378)" />
    <path
       style="fill:none;stroke:#000000;stroke-width:1px;stroke-linecap:butt;stroke-linejoin:miter;stroke-opacity:1"
       d="m 960,1680 240,160 120,-80 -160,-80 z"
       id="path3023"
       inkscape:connector-curvature="0"
       transform="translate(0,-3267.6378)" />
    <path
       style="fill:none;stroke:#000000;stroke-width:1px;stroke-linecap:butt;stroke-linejoin:miter;stroke-opacity:1"
       d="m 1280,-160 240,0 0,800 -240,0 z"
       id="path3025"
       inkscape:connector-curvature="0"
       transform="translate(0,-3267.6378)" />
    <path
       style="fill:none;stroke:#000000;stroke-width:1px;stroke-linecap:butt;stroke-linejoin:miter;stroke-opacity:1"
       d="m 1280,640 0,280 240,0 0,-280 z"
       id="path3027"
       inkscape:connector-curvature="0"
       transform="translate(0,-3267.6378)" />
    <path
       style="fill:none;stroke:#000000;stroke-width:1px;stroke-linecap:butt;stroke-linejoin:miter;stroke-opacity:1"
       d="m 1520,920 0,400 -240,200 0,-600 z"
       id="path3029"
       inkscape:connector-curvature="0"
       transform="translate(0,-3267.6378)" />
    <path
       style="fill:none;stroke:#000000;stroke-width:1px;stroke-linecap:butt;stroke-linejoin:miter;stroke-opacity:1"
       d="m 1400,2000 0,200 240,0 0,-200 z"
       id="path3050"
       inkscape:connector-curvature="0"
       transform="translate(0,-3267.6378)" />
    <path
       style="fill:none;stroke:#000000;stroke-width:1px;stroke-linecap:butt;stroke-linejoin:miter;stroke-opacity:1"
       d="m 1400,2000 360,-320 200,0 0,320 -320,0 z"
       id="path3052"
       inkscape:connector-curvature="0"
       transform="translate(0,-3267.6378)" />
    <path
       style="fill:none;stroke:#000000;stroke-width:1px;stroke-linecap:butt;stroke-linejoin:miter;stroke-opacity:1"
       d="m -200,1600 0,1000 320,0 0,-1000 z"
       id="path3054"
       inkscape:connector-curvature="0"
       transform="translate(0,-3267.6378)" />
    <path
       style="fill:none;stroke:#000000;stroke-width:1px;stroke-linecap:butt;stroke-linejoin:miter;stroke-opacity:1"
       d="m 1280,2400 -360,440 800,-40 z"
       id="path3056"
       inkscape:connector-curvature="0"
       transform="translate(0,-3267.6378)" />
    <path
       style="fill:none;stroke:#000000;stroke-width:1px;stroke-linecap:butt;stroke-linejoin:miter;stroke-opacity:1"
       d="m 800,2560 -280,280 -400,0 0,-240 z"
       id="path3058"
       inkscape:connector-curvature="0"
       transform="translate(0,-3267.6378)" />
    <path
       style="fill:none;stroke:#000000;stroke-width:1px;stroke-linecap:butt;stroke-linejoin:miter;stroke-opacity:1"
       d="m -200,2600 0,400 320,0 0,-400 z"
       id="path3060"
       inkscape:connector-curvature="0"
       transform="translate(0,-3267.6378)" />
    <path
       style="fill:none;stroke:#000000;stroke-width:1px;stroke-linecap:butt;stroke-linejoin:miter;stroke-opacity:1"
       d="m -200,3000 0,280 2160,0 0,-280 z"
       id="path3062"
       inkscape:connector-curvature="0"
       transform="translate(0,-3267.6378)" />
    <path
       style="fill:none;stroke:#000000;stroke-width:1px;stroke-linecap:butt;stroke-linejoin:miter;stroke-opacity:1"
       d="m 1960,3280 600,0 0,-280 -600,0 z"
       id="path3064"
       inkscape:connector-curvature="0"
       transform="translate(0,-3267.6378)" />
    <path
       style="fill:none;stroke:#000000;stroke-width:1px;stroke-linecap:butt;stroke-linejoin:miter;stroke-opacity:1"
       d="m 2040,3000 160,-280 -120,-120 120,-160 -80,-120 360,-320 80,0 0,1000 z"
       id="path3066"
       inkscape:connector-curvature="0"
       transform="translate(0,-3267.6378)" />
    <path
       style="fill:none;stroke:#000000;stroke-width:1px;stroke-linecap:butt;stroke-linejoin:miter;stroke-opacity:1"
       d="m 1520,1360 -120,120 240,240 120,-80 z"
       id="path3068"
       inkscape:connector-curvature="0"
       transform="translate(0,-3267.6378)"
       inkscape:label="blink" />
    <path
       style="fill:none;stroke:#000000;stroke-width:1px;stroke-linecap:butt;stroke-linejoin:miter;stroke-opacity:1"
       d="m 2480,2000 -280,-600 400,0 -40,600 z"
       id="path3070"
       inkscape:connector-curvature="0"
       transform="translate(0,-3267.6378)" />
    <path
       style="fill:none;stroke:#000000;stroke-width:1px;stroke-linecap:butt;stroke-linejoin:miter;stroke-opacity:1"
       d="m 1680,1000 -40,80 80,80 120,-40 -40,-120 z"
       id="path3072"
       inkscape:connector-curvature="0"
       transform="translate(0,-3267.6378)" />
    <path
       style="fill:none;stroke:#000000;stroke-width:1px;stroke-linecap:butt;stroke-linejoin:miter;stroke-opacity:1"
       d="m 2000,880 -80,80 80,80 120,-40 0,-80 z"
       id="path3074"
       inkscape:connector-curvature="0"
       transform="translate(0,-3267.6378)" />
    <path
       style="fill:none;stroke:#000000;stroke-width:1px;stroke-linecap:butt;stroke-linejoin:miter;stroke-opacity:1"
       d="m 1720,720 -80,120 120,40 40,-80 z"
       id="path3076"
       inkscape:connector-curvature="0"
       transform="translate(0,-3267.6378)" />
    <path
       style="fill:none;stroke:#000000;stroke-width:1px;stroke-linecap:butt;stroke-linejoin:miter;stroke-opacity:1"
       d="m 1960,600 -120,120 80,40 120,-160 z"
       id="path3078"
       inkscape:connector-curvature="0"
       transform="translate(0,-3267.6378)" />
    <path
       style="fill:none;stroke:#000000;stroke-width:1px;stroke-linecap:butt;stroke-linejoin:miter;stroke-opacity:1"
       d="m 2160,800 160,120 40,-80 -160,-120 z"
       id="path3080"
       inkscape:connector-curvature="0"
       transform="translate(0,-3267.6378)" />
    <path
       style="fill:none;stroke:#000000;stroke-width:1px;stroke-linecap:butt;stroke-linejoin:miter;stroke-opacity:1"
       d="m 2200,1400 0,0 240,-400 0,-480 160,0 0,880 z"
       id="path3082"
       inkscape:connector-curvature="0"
       transform="translate(0,-3267.6378)" />
    <path
       style="fill:none;stroke:#000000;stroke-width:1px;stroke-linecap:butt;stroke-linejoin:miter;stroke-opacity:1"
       d="M 1520,640 1840,400 1840,0 1520,-160 z"
       id="path3084"
       inkscape:connector-curvature="0"
       transform="translate(0,-3267.6378)" />
    <path
       style="fill:none;stroke:#000000;stroke-width:1px;stroke-linecap:butt;stroke-linejoin:miter;stroke-opacity:1"
       d="m 2440,520 -280,-160 0,-360 440,-160 0,680 z"
       id="path3086"
       inkscape:connector-curvature="0"
       transform="translate(0,-3267.6378)" />
    <path
       style="fill:none;stroke:#000000;stroke-width:1px;stroke-linecap:butt;stroke-linejoin:miter;stroke-opacity:1"
       d="m 1520,-160 1080,0 -440,160 -320,0 z"
       id="path3088"
       inkscape:connector-curvature="0"
       transform="translate(0,-3267.6378)"
       inkscape:label="goal" />
    <path
       style="fill:none;stroke:#000000;stroke-width:1px;stroke-linecap:butt;stroke-linejoin:miter;stroke-opacity:1"
       d="m 560,-2002.6378 15,0 0,25 -15,0 z"
       id="path3020"
       inkscape:connector-curvature="0"
       inkscape:label="cannon" />
  </g>
</svg>
